<svg width="28" height="31" viewBox="0 0 28 31" fill="none" xmlns="http://www.w3.org/2000/svg">
<path d="M8.40001 4.64999C7.2861 4.64999 6.21782 5.1399 5.43016 6.01195C4.64251 6.88399 4.20001 8.06674 4.20001 9.29999V21.7C4.20001 22.9333 4.64251 24.116 5.43016 24.988C6.21782 25.8601 7.2861 26.35 8.40001 26.35H19.6C20.7139 26.35 21.7822 25.8601 22.5699 24.988C23.3575 24.116 23.8 22.9333 23.8 21.7V9.29999C23.8 8.06674 23.3575 6.88399 22.5699 6.01195C21.7822 5.1399 20.7139 4.64999 19.6 4.64999H8.40001ZM5.60001 9.29999C5.60001 8.47782 5.89501 7.68933 6.42011 7.10796C6.94521 6.5266 7.65741 6.19999 8.40001 6.19999H19.6C20.3426 6.19999 21.0548 6.5266 21.5799 7.10796C22.105 7.68933 22.4 8.47782 22.4 9.29999V21.7C22.4 22.5222 22.105 23.3107 21.5799 23.892C21.0548 24.4734 20.3426 24.8 19.6 24.8H8.40001C7.65741 24.8 6.94521 24.4734 6.42011 23.892C5.89501 23.3107 5.60001 22.5222 5.60001 21.7V9.29999ZM19.3956 12.1737C19.5271 12.0282 19.6009 11.8308 19.6009 11.625C19.6009 11.4192 19.5271 11.2218 19.3956 11.0763C19.2642 10.9308 19.0859 10.849 18.9 10.849C18.7141 10.849 18.5359 10.9308 18.4044 11.0763L11.9 18.2791L9.59561 15.7263C9.46417 15.5808 9.2859 15.499 9.10001 15.499C8.91413 15.499 8.73585 15.5808 8.60441 15.7263C8.47297 15.8718 8.39913 16.0692 8.39913 16.275C8.39913 16.4808 8.47297 16.6782 8.60441 16.8237L11.4044 19.9237C11.4694 19.9959 11.5467 20.0531 11.6317 20.0922C11.7168 20.1313 11.8079 20.1514 11.9 20.1514C11.9921 20.1514 12.0833 20.1313 12.1683 20.0922C12.2533 20.0531 12.3306 19.9959 12.3956 19.9237L19.3956 12.1737Z" fill="black"/>
</svg>
