<svg width="47" height="45" viewBox="0 0 47 45" fill="none" xmlns="http://www.w3.org/2000/svg">
<path d="M18.8 31.2187L23.5 27.75L28.2 31.2187L26.4375 25.5L30.8437 22.5H25.3604L23.5 16.6875L21.6396 22.5H16.1562L20.5625 25.5L18.8 31.2187ZM23.5 32.4375L16.2542 37.7344C15.8951 38.0156 15.5035 38.1481 15.0792 38.1319C14.6549 38.1169 14.2795 38 13.9531 37.7812C13.6267 37.5625 13.3741 37.2656 13.1952 36.8906C13.0151 36.5156 13.0066 36.1094 13.1698 35.6719L15.9604 27L8.86145 22.1719C8.46979 21.9219 8.225 21.5938 8.12708 21.1875C8.02916 20.7812 8.04548 20.4062 8.17604 20.0625C8.30659 19.7187 8.53507 19.4137 8.86145 19.1475C9.18784 18.8825 9.57951 18.75 10.0365 18.75H18.8L21.6396 9.75C21.8028 9.3125 22.056 8.97625 22.3994 8.74125C22.7415 8.5075 23.1083 8.39062 23.5 8.39062C23.8917 8.39062 24.2585 8.5075 24.6006 8.74125C24.9439 8.97625 25.1972 9.3125 25.3604 9.75L28.2 18.75H36.9635C37.4205 18.75 37.8121 18.8825 38.1385 19.1475C38.4649 19.4137 38.6934 19.7187 38.824 20.0625C38.9545 20.4062 38.9708 20.7812 38.8729 21.1875C38.775 21.5938 38.5302 21.9219 38.1385 22.1719L31.0396 27L33.8302 35.6719C33.9934 36.1094 33.9856 36.5156 33.8067 36.8906C33.6265 37.2656 33.3733 37.5625 33.0469 37.7812C32.7205 38 32.3451 38.1169 31.9208 38.1319C31.4965 38.1481 31.1049 38.0156 30.7458 37.7344L23.5 32.4375Z" fill="black"/>
</svg>
