<svg width="46" height="45" viewBox="0 0 46 45" fill="none" xmlns="http://www.w3.org/2000/svg">
<path d="M19.0469 12.3047C19.0469 12.4228 19.0526 12.541 19.0627 12.6563H16.1719C16.0766 12.6563 15.9852 12.6933 15.9178 12.7593C15.8504 12.8252 15.8125 12.9146 15.8125 13.0078V29.1797C15.8125 29.3738 15.9735 29.5313 16.1719 29.5313H29.8281C29.9234 29.5313 30.0148 29.4942 30.0822 29.4283C30.1496 29.3624 30.1875 29.273 30.1875 29.1797V13.0078C30.1875 12.9146 30.1496 12.8252 30.0822 12.7593C30.0148 12.6933 29.9234 12.6563 29.8281 12.6563H26.9373C26.985 12.1362 26.9245 11.6121 26.7596 11.1155C26.5946 10.6189 26.3285 10.1602 25.9774 9.7669C25.6263 9.37363 25.1974 9.05399 24.7166 8.82725C24.2358 8.60051 23.7131 8.47137 23.1799 8.44761C22.6467 8.42385 22.1141 8.50597 21.6142 8.68902C21.1143 8.87206 20.6575 9.15224 20.2713 9.51266C19.8851 9.87309 19.5775 10.3063 19.3671 10.7861C19.1566 11.266 19.0477 11.7826 19.0469 12.3047ZM25.5156 12.3047C25.5156 12.4243 25.507 12.541 25.4897 12.6563H20.5102C20.4608 12.3217 20.4824 11.9807 20.5736 11.6547C20.6648 11.3286 20.8237 11.0244 21.0404 10.761C21.2571 10.4977 21.527 10.2809 21.8331 10.1241C22.1393 9.96724 22.4752 9.87382 22.8198 9.84961C23.1645 9.8254 23.5106 9.87092 23.8365 9.98334C24.1625 10.0958 24.4612 10.2727 24.7141 10.503C24.9671 10.7334 25.1688 11.0122 25.3067 11.3222C25.4446 11.6322 25.5157 11.9667 25.5156 12.3047ZM10.0625 14.0625C10.0625 13.6896 10.214 13.3319 10.4835 13.0682C10.7531 12.8044 11.1188 12.6563 11.5 12.6563H14.0156C14.1109 12.6563 14.2023 12.6933 14.2697 12.7593C14.3371 12.8252 14.375 12.9146 14.375 13.0078V29.1797C14.375 29.273 14.3371 29.3624 14.2697 29.4283C14.2023 29.4942 14.1109 29.5313 14.0156 29.5313H11.5C11.1188 29.5313 10.7531 29.3831 10.4835 29.1194C10.214 28.8557 10.0625 28.498 10.0625 28.125V14.0625ZM31.9844 29.5313C31.8891 29.5313 31.7977 29.4942 31.7303 29.4283C31.6629 29.3624 31.625 29.273 31.625 29.1797V13.0078C31.625 12.9146 31.6629 12.8252 31.7303 12.7593C31.7977 12.6933 31.8891 12.6563 31.9844 12.6563H34.5C34.8812 12.6563 35.2469 12.8044 35.5165 13.0682C35.7861 13.3319 35.9375 13.6896 35.9375 14.0625V28.125C35.9375 28.498 35.7861 28.8557 35.5165 29.1194C35.2469 29.3831 34.8812 29.5313 34.5 29.5313H31.9844ZM36.6562 32.3438C36.8469 32.3438 37.0297 32.4179 37.1645 32.5497C37.2993 32.6816 37.375 32.8604 37.375 33.0469C37.375 33.2334 37.2993 33.4122 37.1645 33.5441C37.0297 33.676 36.8469 33.75 36.6562 33.75H33.0625C33.0625 34.123 32.9111 34.4807 32.6415 34.7444C32.3719 35.0081 32.0062 35.1563 31.625 35.1563C31.2438 35.1563 30.8781 35.0081 30.6085 34.7444C30.3389 34.4807 30.1875 34.123 30.1875 33.75H27.3125C27.3125 34.123 27.1611 34.4807 26.8915 34.7444C26.6219 35.0081 26.2562 35.1563 25.875 35.1563C25.4938 35.1563 25.1281 35.0081 24.8585 34.7444C24.5889 34.4807 24.4375 34.123 24.4375 33.75H21.5625C21.5625 34.123 21.411 34.4807 21.1415 34.7444C20.8719 35.0081 20.5062 35.1563 20.125 35.1563C19.7438 35.1563 19.3781 35.0081 19.1085 34.7444C18.839 34.4807 18.6875 34.123 18.6875 33.75H15.8125C15.8125 34.123 15.661 34.4807 15.3915 34.7444C15.1219 35.0081 14.7562 35.1563 14.375 35.1563C13.9938 35.1563 13.6281 35.0081 13.3585 34.7444C13.089 34.4807 12.9375 34.123 12.9375 33.75H9.34375C9.15313 33.75 8.97031 33.676 8.83552 33.5441C8.70073 33.4122 8.625 33.2334 8.625 33.0469C8.625 32.8604 8.70073 32.6816 8.83552 32.5497C8.97031 32.4179 9.15313 32.3438 9.34375 32.3438H36.6562Z" fill="black"/>
<path d="M8.625 1.40625C7.68112 1.40625 6.74649 1.58812 5.87446 1.94147C5.00243 2.29483 4.21009 2.81274 3.54267 3.46566C2.19475 4.78427 1.4375 6.5727 1.4375 8.4375V36.5625C1.4375 38.4273 2.19475 40.2157 3.54267 41.5343C4.21009 42.1873 5.00243 42.7052 5.87446 43.0585C6.74649 43.4119 7.68112 43.5938 8.625 43.5938H37.375C39.2812 43.5938 41.1094 42.853 42.4573 41.5343C43.8052 40.2157 44.5625 38.4273 44.5625 36.5625V8.4375C44.5625 7.51414 44.3766 6.59983 44.0154 5.74676C43.6542 4.89369 43.1248 4.11857 42.4573 3.46566C41.7899 2.81274 40.9976 2.29483 40.1255 1.94147C39.2535 1.58812 38.3189 1.40625 37.375 1.40625H8.625ZM4.3125 8.4375C4.3125 7.31862 4.76685 6.24556 5.5756 5.45439C6.38435 4.66322 7.48125 4.21875 8.625 4.21875H37.375C38.5187 4.21875 39.6156 4.66322 40.4244 5.45439C41.2332 6.24556 41.6875 7.31862 41.6875 8.4375V36.5625C41.6875 37.6814 41.2332 38.7544 40.4244 39.5456C39.6156 40.3368 38.5187 40.7812 37.375 40.7812H8.625C7.48125 40.7812 6.38435 40.3368 5.5756 39.5456C4.76685 38.7544 4.3125 37.6814 4.3125 36.5625V8.4375Z" fill="black"/>
</svg>
