<svg width="40" height="41" viewBox="0 0 40 41" fill="none" xmlns="http://www.w3.org/2000/svg">
<path d="M4.44444 0C1.99306 0 0 3.05346 0 6.80911V34.0456C0 37.8012 1.99306 40.8547 4.44444 40.8547H35.5556C38.0069 40.8547 40 37.8012 40 34.0456V6.80911C40 3.05346 38.0069 0 35.5556 0H4.44444ZM18.8889 13.6182H34.4444C35.0556 13.6182 35.5556 14.3843 35.5556 15.3205C35.5556 16.2568 35.0556 17.0228 34.4444 17.0228H18.8889C18.2778 17.0228 17.7778 16.2568 17.7778 15.3205C17.7778 14.3843 18.2778 13.6182 18.8889 13.6182ZM17.7778 25.5342C17.7778 24.5979 18.2778 23.8319 18.8889 23.8319H34.4444C35.0556 23.8319 35.5556 24.5979 35.5556 25.5342C35.5556 26.4704 35.0556 27.2365 34.4444 27.2365H18.8889C18.2778 27.2365 17.7778 26.4704 17.7778 25.5342ZM11.3958 10.2137V10.8839C11.8542 11.0116 12.5486 11.2244 12.8542 11.3521C13.5972 11.65 14.0347 12.8203 13.8403 13.9587C13.6458 15.0971 12.8819 15.7674 12.1389 15.4695C11.875 15.3631 10.9306 15.0758 10.6319 15.012C9.78472 14.8098 9.09028 14.9801 8.64583 15.2886C8.20833 15.5971 8.09722 15.9482 8.07639 16.1504C8.03472 16.5121 8.07639 16.6504 8.08333 16.6823C8.10417 16.7355 8.15278 16.8738 8.33333 17.0547C8.75694 17.5016 9.42361 17.8207 10.4097 18.2676L10.4653 18.2889C11.3056 18.6825 12.4306 19.1932 13.2708 20.1401C13.7361 20.6614 14.1736 21.353 14.4444 22.3211C14.7222 23.2893 14.7778 24.3532 14.6528 25.4491C14.4236 27.4705 13.5486 28.8536 12.4583 29.5664C12.1181 29.7899 11.7639 29.9495 11.3889 30.0559V30.641C11.3889 31.822 10.7639 32.7795 9.99306 32.7795C9.22222 32.7795 8.59722 31.822 8.59722 30.641V29.9601C7.9375 29.726 7.07639 29.2792 6.52778 28.9919C6.40972 28.9281 6.30556 28.8749 6.22222 28.8323C5.49306 28.46 5.10417 27.2577 5.34028 26.1406C5.57639 25.0235 6.36806 24.4277 7.09722 24.7894C7.23611 24.8639 7.38194 24.9384 7.54167 25.0129C8.20139 25.3533 8.94444 25.747 9.36111 25.8534C10.25 26.0661 10.9375 25.9278 11.3611 25.6512C11.7431 25.4065 11.875 25.0873 11.9167 24.715C11.9653 24.2894 11.9236 24.0872 11.9028 24.0021C11.875 23.9064 11.8125 23.7681 11.6458 23.5766C11.2361 23.1191 10.5833 22.7786 9.61111 22.3318L9.45833 22.2573C8.64583 21.8849 7.58333 21.3955 6.77778 20.555C6.31944 20.0762 5.86111 19.4166 5.57639 18.4804C5.28472 17.5228 5.21528 16.4802 5.34028 15.395C5.5625 13.448 6.46528 12.1075 7.5 11.384C7.84722 11.1393 8.21528 10.9584 8.60417 10.8414V10.203C8.60417 9.02208 9.22917 8.06454 10 8.06454C10.7708 8.06454 11.3958 9.02208 11.3958 10.203V10.2137Z" fill="black"/>
</svg>
