<svg width="44" height="38" viewBox="0 0 44 38" fill="none" xmlns="http://www.w3.org/2000/svg">
<path d="M3.66669 9.50002C3.66669 9.08009 3.85984 8.67737 4.20366 8.38043C4.54747 8.0835 5.01379 7.91669 5.50002 7.91669H38.5C38.9863 7.91669 39.4526 8.0835 39.7964 8.38043C40.1402 8.67737 40.3334 9.08009 40.3334 9.50002C40.3334 9.91995 40.1402 10.3227 39.7964 10.6196C39.4526 10.9165 38.9863 11.0834 38.5 11.0834H5.50002C5.01379 11.0834 4.54747 10.9165 4.20366 10.6196C3.85984 10.3227 3.66669 9.91995 3.66669 9.50002ZM3.66669 19.0507C3.66669 18.6308 3.85984 18.228 4.20366 17.9311C4.54747 17.6342 5.01379 17.4674 5.50002 17.4674H38.5C38.9863 17.4674 39.4526 17.6342 39.7964 17.9311C40.1402 18.228 40.3334 18.6308 40.3334 19.0507C40.3334 19.4706 40.1402 19.8733 39.7964 20.1703C39.4526 20.4672 38.9863 20.634 38.5 20.634H5.50002C5.01379 20.634 4.54747 20.4672 4.20366 20.1703C3.85984 19.8733 3.66669 19.4706 3.66669 19.0507ZM5.50002 27.018C5.01379 27.018 4.54747 27.1848 4.20366 27.4818C3.85984 27.7787 3.66669 28.1814 3.66669 28.6014C3.66669 29.0213 3.85984 29.424 4.20366 29.7209C4.54747 30.0179 5.01379 30.1847 5.50002 30.1847H38.5C38.9863 30.1847 39.4526 30.0179 39.7964 29.7209C40.1402 29.424 40.3334 29.0213 40.3334 28.6014C40.3334 28.1814 40.1402 27.7787 39.7964 27.4818C39.4526 27.1848 38.9863 27.018 38.5 27.018H5.50002Z" fill="black"/>
</svg>
