<svg width="32" height="35" viewBox="0 0 32 35" fill="none" xmlns="http://www.w3.org/2000/svg">
<path d="M23.875 9.60107C23.4375 8.55518 22.8156 7.61523 22.0219 6.81201C20.4094 5.1748 18.2688 4.27246 16 4.27246C13.7312 4.27246 11.5906 5.1748 9.97812 6.80859C9.18437 7.61523 8.5625 8.55176 8.125 9.60107C7.66875 10.6948 7.4375 11.8535 7.4375 13.0498V13.9727C7.4375 14.1846 7.59375 14.3555 7.7875 14.3555H9.475C9.66875 14.3555 9.825 14.1846 9.825 13.9727V13.0498C9.825 9.64893 12.5938 6.88379 16 6.88379C19.4062 6.88379 22.175 9.64893 22.175 13.0498C22.175 14.4443 21.7219 15.7568 20.8625 16.8506C20.0125 17.9341 18.8125 18.71 17.4844 19.0381C16.725 19.2261 16.0406 19.6943 15.5562 20.3643C15.0736 21.0319 14.8105 21.8578 14.8094 22.709V23.7822C14.8094 23.9941 14.9656 24.165 15.1594 24.165H16.8469C17.0406 24.165 17.1969 23.9941 17.1969 23.7822V22.709C17.1969 22.1724 17.5375 21.7007 18.0094 21.5845C19.8344 21.1333 21.4906 20.0566 22.675 18.5527C23.2719 17.7905 23.7375 16.9429 24.0594 16.0234C24.3938 15.0698 24.5625 14.0684 24.5625 13.0498C24.5625 11.8535 24.3312 10.6914 23.875 9.60107ZM16 26.8994C15.0344 26.8994 14.25 27.7573 14.25 28.8135C14.25 29.8696 15.0344 30.7275 16 30.7275C16.9656 30.7275 17.75 29.8696 17.75 28.8135C17.75 27.7573 16.9656 26.8994 16 26.8994Z" fill="black"/>
</svg>
