<svg width="50" height="32" viewBox="0 0 50 32" fill="none" xmlns="http://www.w3.org/2000/svg">
<path d="M31.8182 0C32.4209 0 32.999 0.186237 33.4252 0.51774C33.8515 0.849244 34.0909 1.29886 34.0909 1.76768V5.30303H43.1818C43.7846 5.30303 44.3627 5.48927 44.7889 5.82077C45.2151 6.15227 45.4545 6.60189 45.4545 7.07071V28.2828H50V31.8182H0V28.2828H4.54545V7.07071C4.54545 6.60189 4.7849 6.15227 5.21112 5.82077C5.63734 5.48927 6.21542 5.30303 6.81818 5.30303H15.9091V1.76768C15.9091 1.29886 16.1485 0.849244 16.5748 0.51774C17.001 0.186237 17.5791 0 18.1818 0H31.8182ZM15.9091 8.83838H9.09091V28.2828H15.9091V8.83838ZM29.5455 8.83838H20.4545V28.2828H29.5455V8.83838ZM40.9091 8.83838H34.0909V28.2828H40.9091V8.83838ZM29.5455 3.53535H20.4545V5.30303H29.5455V3.53535Z" fill="black"/>
</svg>
