<svg width="49" height="50" viewBox="0 0 49 50" fill="none" xmlns="http://www.w3.org/2000/svg">
<path d="M41.3438 6.25H1.53125V37.5H41.3438V6.25ZM38.2812 34.375H4.59375V9.375H38.2812V34.375Z" fill="black"/>
<path d="M44.4062 14.0625V40.625H9.1875V43.75H47.4688V14.0625H44.4062Z" fill="black"/>
<path d="M21.4375 29.5371C25.2369 29.5371 28.3281 26.1058 28.3281 21.8881C28.3281 17.6704 25.2369 14.2391 21.4375 14.2391C17.6381 14.2391 14.5469 17.6703 14.5469 21.8881C14.5469 26.1059 17.6381 29.5371 21.4375 29.5371ZM21.4375 17.3641C23.5483 17.3641 25.2656 19.3936 25.2656 21.8881C25.2656 24.3826 23.5483 26.4121 21.4375 26.4121C19.3267 26.4121 17.6094 24.3826 17.6094 21.8881C17.6094 19.3936 19.3267 17.3641 21.4375 17.3641ZM7.65625 13.2812H10.7188V30.4688H7.65625V13.2812ZM32.1562 13.2812H35.2188V30.4688H32.1562V13.2812Z" fill="black"/>
</svg>
