<svg width="49" height="41" viewBox="0 0 49 41" fill="none" xmlns="http://www.w3.org/2000/svg">
<path d="M3.0625 35.875H45.9375V38.4375H3.0625V35.875ZM41.3438 14.0938C41.7499 14.0938 42.1393 13.9588 42.4265 13.7185C42.7137 13.4782 42.875 13.1523 42.875 12.8125V8.96875C42.8749 8.70544 42.7778 8.44855 42.5969 8.23305C42.4161 8.01755 42.1603 7.85391 41.8644 7.76438L25.0206 2.63938C24.6842 2.53761 24.3158 2.53761 23.9794 2.63938L7.13562 7.76438C6.83968 7.85391 6.58389 8.01755 6.40305 8.23305C6.22222 8.44855 6.12513 8.70544 6.125 8.96875V12.8125C6.125 13.1523 6.28633 13.4782 6.57349 13.7185C6.86066 13.9588 7.25014 14.0938 7.65625 14.0938H9.1875V30.75H6.125V33.3125H42.875V30.75H39.8125V14.0938H41.3438ZM9.1875 9.86563L24.5 5.20188L39.8125 9.86563V11.5313H9.1875V9.86563ZM27.5625 30.75H21.4375V14.0938H27.5625V30.75ZM12.25 14.0938H18.375V30.75H12.25V14.0938ZM36.75 30.75H30.625V14.0938H36.75V30.75Z" fill="black"/>
</svg>
