<svg width="44" height="32" viewBox="0 0 44 32" fill="none" xmlns="http://www.w3.org/2000/svg">
<path d="M37.2969 22.875H34.2762C34.0699 22.875 33.8766 22.9407 33.7477 23.0563C33.4469 23.3219 33.1246 23.5782 32.7852 23.8219C31.3968 24.8326 29.7523 25.6381 27.9426 26.1938C26.0677 26.7697 24.0525 27.0652 22.0172 27.0626C19.959 27.0626 17.9652 26.7688 16.0918 26.1938C14.2821 25.6381 12.6376 24.8326 11.2492 23.8219C9.85839 22.8146 8.74937 21.6207 7.9836 20.3063C7.18867 18.9438 6.78906 17.4969 6.78906 16C6.78906 14.5032 7.19297 13.0563 7.9836 11.6938C8.74844 10.3782 9.84844 9.1938 11.2492 8.17817C12.65 7.16255 14.2785 6.36255 16.0918 5.8063C17.9652 5.2313 19.959 4.93755 22.0172 4.93755C24.0754 4.93755 26.0691 5.22817 27.9426 5.8063C29.7559 6.36255 31.3844 7.16255 32.7852 8.17817C33.1246 8.42505 33.4426 8.6813 33.7477 8.9438C33.8766 9.05942 34.0742 9.12505 34.2762 9.12505H37.2969C37.5676 9.12505 37.7352 8.9063 37.5848 8.74067C34.2891 5.01567 28.5227 2.55005 21.9699 2.56255C11.6746 2.5813 3.42031 8.65942 3.52344 16.1376C3.62656 23.4969 11.868 29.4376 22.0172 29.4376C28.5527 29.4376 34.2934 26.975 37.5848 23.2594C37.7309 23.0938 37.5676 22.875 37.2969 22.875ZM41.1168 15.8032L35.0195 12.3032C34.7918 12.1719 34.4609 12.2907 34.4609 12.5V14.875H20.9688C20.7797 14.875 20.625 14.9875 20.625 15.125V16.875C20.625 17.0125 20.7797 17.125 20.9688 17.125H34.4609V19.5C34.4609 19.7094 34.7961 19.8282 35.0195 19.6969L41.1168 16.1969C41.1579 16.1735 41.1911 16.1437 41.214 16.1095C41.2368 16.0754 41.2487 16.038 41.2487 16C41.2487 15.9621 41.2368 15.9247 41.214 15.8905C41.1911 15.8564 41.1579 15.8266 41.1168 15.8032Z" fill="black"/>
</svg>
