<svg width="34" height="34" viewBox="0 0 34 34" fill="none" xmlns="http://www.w3.org/2000/svg">
<path fill-rule="evenodd" clip-rule="evenodd" d="M9.18765 25.8869C15.0059 25.0441 19.0119 25.1165 24.8378 25.9164C25.2598 25.977 25.6453 26.187 25.9232 26.5075C26.2012 26.8281 26.3528 27.2375 26.35 27.6602C26.35 28.0648 26.2097 28.4575 25.9564 28.7643C25.515 29.2992 25.0627 29.8253 24.5998 30.3421H26.8447C26.9858 30.1752 27.1277 30.005 27.2714 29.8322C27.7756 29.2191 28.0506 28.4521 28.05 27.6611C28.05 25.9543 26.7937 24.4836 25.0707 24.2476C19.1071 23.4292 14.9387 23.3508 8.942 24.2198C7.2012 24.4718 5.95 25.9653 5.95 27.6838C5.95 28.4466 6.20075 29.2009 6.6759 29.812C6.81615 29.9923 6.9547 30.1693 7.0924 30.343H9.28285C8.85226 29.8318 8.43227 29.3119 8.02315 28.7837C7.78002 28.4675 7.64886 28.0806 7.65 27.683C7.65 26.7752 8.3079 26.0142 9.18765 25.8869ZM17 17.6996C17.6697 17.6996 18.3329 17.5688 18.9517 17.3147C19.5704 17.0605 20.1327 16.688 20.6062 16.2184C21.0798 15.7488 21.4555 15.1914 21.7118 14.5778C21.9681 13.9643 22.1 13.3067 22.1 12.6426C22.1 11.9785 21.9681 11.3209 21.7118 10.7074C21.4555 10.0938 21.0798 9.53632 20.6062 9.06674C20.1327 8.59715 19.5704 8.22465 18.9517 7.97052C18.3329 7.71638 17.6697 7.58557 17 7.58557C15.6474 7.58557 14.3502 8.11836 13.3938 9.06674C12.4373 10.0151 11.9 11.3014 11.9 12.6426C11.9 13.9838 12.4373 15.2701 13.3938 16.2184C14.3502 17.1668 15.6474 17.6996 17 17.6996ZM17 19.3853C18.8035 19.3853 20.5331 18.6749 21.8083 17.4104C23.0836 16.1459 23.8 14.4309 23.8 12.6426C23.8 10.8543 23.0836 9.13929 21.8083 7.87479C20.5331 6.61029 18.8035 5.8999 17 5.8999C15.1965 5.8999 13.4669 6.61029 12.1917 7.87479C10.9164 9.13929 10.2 10.8543 10.2 12.6426C10.2 14.4309 10.9164 16.1459 12.1917 17.4104C13.4669 18.6749 15.1965 19.3853 17 19.3853Z" fill="black"/>
<path fill-rule="evenodd" clip-rule="evenodd" d="M17 32.0277C25.4499 32.0277 32.3 25.2353 32.3 16.8567C32.3 8.47808 25.4499 1.68567 17 1.68567C8.55015 1.68567 1.7 8.47808 1.7 16.8567C1.7 25.2353 8.55015 32.0277 17 32.0277ZM17 33.7134C26.3891 33.7134 34 26.1667 34 16.8567C34 7.54675 26.3891 0 17 0C7.6109 0 0 7.54675 0 16.8567C0 26.1667 7.6109 33.7134 17 33.7134Z" fill="black"/>
</svg>
