<svg width="36" height="30" viewBox="0 0 36 30" fill="none" xmlns="http://www.w3.org/2000/svg">
<path d="M23.625 15C23.625 16.2432 23.0324 17.4355 21.9775 18.3146C20.9226 19.1936 19.4918 19.6875 18 19.6875C16.5082 19.6875 15.0774 19.1936 14.0225 18.3146C12.9676 17.4355 12.375 16.2432 12.375 15C12.375 13.7568 12.9676 12.5645 14.0225 11.6854C15.0774 10.8064 16.5082 10.3125 18 10.3125C19.4918 10.3125 20.9226 10.8064 21.9775 11.6854C23.0324 12.5645 23.625 13.7568 23.625 15Z" fill="black"/>
<path d="M0 15C0 15 6.75 4.6875 18 4.6875C29.25 4.6875 36 15 36 15C36 15 29.25 25.3125 18 25.3125C6.75 25.3125 0 15 0 15ZM18 21.5625C20.0886 21.5625 22.0916 20.8711 23.5685 19.6404C25.0453 18.4097 25.875 16.7405 25.875 15C25.875 13.2595 25.0453 11.5903 23.5685 10.3596C22.0916 9.1289 20.0886 8.4375 18 8.4375C15.9114 8.4375 13.9084 9.1289 12.4315 10.3596C10.9547 11.5903 10.125 13.2595 10.125 15C10.125 16.7405 10.9547 18.4097 12.4315 19.6404C13.9084 20.8711 15.9114 21.5625 18 21.5625Z" fill="black"/>
</svg>
